<?xml version="1.0" encoding="UTF-8" standalone="no"?>
<svg
   xmlns:dc="http://purl.org/dc/elements/1.1/"
   xmlns:cc="http://creativecommons.org/ns#"
   xmlns:rdf="http://www.w3.org/1999/02/22-rdf-syntax-ns#"
   xmlns:svg="http://www.w3.org/2000/svg"
   xmlns="http://www.w3.org/2000/svg"
   xmlns:sodipodi="http://sodipodi.sourceforge.net/DTD/sodipodi-0.dtd"
   xmlns:inkscape="http://www.inkscape.org/namespaces/inkscape"
   height="24"
   width="24"
   version="1.1"
   id="svg28"
   sodipodi:docname="icon3.svg"
   inkscape:version="0.92.2 (5c3e80d, 2017-08-06)"
   inkscape:export-filename="C:\Users\cjhamil\Documents\GitHub\qgis-layersearch-plugin\icon.png"
   inkscape:export-xdpi="96"
   inkscape:export-ydpi="96">
  <metadata
     id="metadata34">
    <rdf:RDF>
      <cc:Work
         rdf:about="">
        <dc:format>image/svg+xml</dc:format>
        <dc:type
           rdf:resource="http://purl.org/dc/dcmitype/StillImage" />
        <dc:title></dc:title>
      </cc:Work>
    </rdf:RDF>
  </metadata>
  <defs
     id="defs32" />
  <sodipodi:namedview
     pagecolor="#ffffff"
     bordercolor="#666666"
     borderopacity="1"
     objecttolerance="10"
     gridtolerance="10"
     guidetolerance="10"
     inkscape:pageopacity="0"
     inkscape:pageshadow="2"
     inkscape:window-width="1488"
     inkscape:window-height="910"
     id="namedview30"
     showgrid="false"
     inkscape:zoom="21.124815"
     inkscape:cx="12"
     inkscape:cy="12"
     inkscape:window-x="192"
     inkscape:window-y="54"
     inkscape:window-maximized="0"
     inkscape:current-layer="svg28" />
  <g
     transform="translate(0,-8)"
     id="g26"
     style="stroke:#6e97c4">
    <path
       d="m 2.5,15.5 h 19 v 14 h -19 z"
       id="path2"
       inkscape:connector-curvature="0"
       style="fill:#e6e6e6" />
    <path
       d="m 2.5,10.5 h 19 v 5 h -19 z"
       id="path4"
       inkscape:connector-curvature="0"
       style="fill:#bad9ec" />
    <path
       d="M 5,13 H 9"
       overflow="visible"
       id="path6"
       inkscape:connector-curvature="0"
       style="overflow:visible;fill:none;stroke-width:2" />
    <path
       d="m 11,13 h 7.999999"
       id="path8"
       inkscape:connector-curvature="0"
       style="fill:none;stroke-width:2" />
    <path
       d="M 5,17.5 H 9"
       overflow="visible"
       id="path10"
       inkscape:connector-curvature="0"
       style="overflow:visible;fill:none" />
    <path
       d="m 11,17.5 h 7.999999"
       id="path12"
       inkscape:connector-curvature="0"
       style="fill:none" />
    <path
       d="M 5,20.5 H 9"
       overflow="visible"
       id="path14"
       inkscape:connector-curvature="0"
       style="overflow:visible;fill:none" />
    <path
       d="m 11,20.5 h 7.999999"
       id="path16"
       inkscape:connector-curvature="0"
       style="fill:none" />
    <path
       d="M 5,23.5 H 9"
       overflow="visible"
       id="path18"
       inkscape:connector-curvature="0"
       style="overflow:visible;fill:none" />
    <path
       d="m 11,23.5 h 7.999999"
       id="path20"
       inkscape:connector-curvature="0"
       style="fill:#ffeeaa" />
    <path
       d="M 5,26.5 H 9"
       overflow="visible"
       id="path22"
       inkscape:connector-curvature="0"
       style="overflow:visible;fill:none" />
    <path
       d="m 11,26.5 h 7.999999"
       id="path24"
       inkscape:connector-curvature="0"
       style="fill:none" />
  </g>
  <path
     id="path2-4"
     d="m 22.84431,20.995459 -3.413469,-3.413471 c -0.508524,0.790943 -1.181403,1.463821 -1.972345,1.972345 l 3.413469,3.413471 c 0.544847,0.544847 1.428399,0.544847 1.972345,0 0.544846,-0.543945 0.544846,-1.427498 0,-1.972345 z"
     inkscape:connector-curvature="0"
     style="stroke:#ffffff;stroke-width:1;stroke-miterlimit:4;stroke-dasharray:none;stroke-opacity:1;paint-order:stroke fill markers"
     inkscape:label="path2-4" />
  <path
     id="path4-8"
     d="m 19.533446,14.07771 c 0,-3.081101 -2.498129,-5.5792305 -5.579229,-5.5792305 -3.081101,0 -5.5792297,2.4981295 -5.5792297,5.5792305 0,3.0811 2.4981287,5.579229 5.5792297,5.579229 3.0811,0 5.579229,-2.498129 5.579229,-5.579229 z m -5.579229,4.184422 c -2.307419,0 -4.1844227,-1.877004 -4.1844227,-4.184422 0,-2.307419 1.8770037,-4.1844235 4.1844227,-4.1844235 2.307418,0 4.184422,1.8770045 4.184422,4.1844235 0,2.307418 -1.877004,4.184422 -4.184422,4.184422 z"
     inkscape:connector-curvature="0"
     style="stroke:#fffff7;stroke-width:1;stroke-linecap:round;stroke-miterlimit:4.30000019;stroke-dasharray:none;stroke-opacity:1;paint-order:markers stroke fill"
     inkscape:label="path4-8" />
</svg>
